<svg xmlns="http://www.w3.org/2000/svg" width="420" height="202" viewBox="0 0 420 202" role="img" aria-label="Most used languages for gtibrett">
	<rect x="0.5" y="0.5" width="419" height="201" rx="6" fill="none" stroke="#30363d"/>
	<g font-family="-apple-system, 'Segoe UI', Helvetica, Arial, sans-serif">
		<text x="24" y="36" font-size="16" font-weight="600" fill="#58a6ff">Most Used Languages</text>
		<rect x="24" y="54" width="372" height="10" rx="5" fill="#21262d"/>
		<g clip-path="url(#bar)"><rect x="24" y="54" width="359.5905712451705" height="10" fill="#3178c6"/><rect x="383.5905712451705" y="54" width="4.047018801840177" height="10" fill="#f1e05a"/><rect x="387.6375900470107" y="54" width="2.706666461084516" height="10" fill="#336790"/><rect x="390.3442565080952" y="54" width="2.4838781666075618" height="10" fill="#fcb32c"/><rect x="392.82813467470277" y="54" width="1.684798741837239" height="10" fill="#663399"/><rect x="394.51293341654" y="54" width="0.8688139722285565" height="10" fill="#89e051"/><rect x="395.3817473887686" y="54" width="0.3154658099301048" height="10" fill="#384d54"/><rect x="395.6972131986987" y="54" width="0.302786801301335" height="10" fill="#e34c26"/></g>
		<clipPath id="bar"><rect x="24" y="54" width="372" height="10" rx="5"/></clipPath>
		
		<circle cx="29" cy="82" r="5" fill="#3178c6"/>
		<text x="42" y="86" font-size="13" fill="#e6edf3">TypeScript <tspan fill="#9198a1">96.7%</tspan></text>
		<circle cx="215" cy="82" r="5" fill="#f1e05a"/>
		<text x="228" y="86" font-size="13" fill="#e6edf3">JavaScript <tspan fill="#9198a1">1.1%</tspan></text>
		<circle cx="29" cy="108" r="5" fill="#336790"/>
		<text x="42" y="112" font-size="13" fill="#e6edf3">PLpgSQL <tspan fill="#9198a1">0.7%</tspan></text>
		<circle cx="215" cy="108" r="5" fill="#fcb32c"/>
		<text x="228" y="112" font-size="13" fill="#e6edf3">MDX <tspan fill="#9198a1">0.7%</tspan></text>
		<circle cx="29" cy="134" r="5" fill="#663399"/>
		<text x="42" y="138" font-size="13" fill="#e6edf3">CSS <tspan fill="#9198a1">0.5%</tspan></text>
		<circle cx="215" cy="134" r="5" fill="#89e051"/>
		<text x="228" y="138" font-size="13" fill="#e6edf3">Shell <tspan fill="#9198a1">0.2%</tspan></text>
		<circle cx="29" cy="160" r="5" fill="#384d54"/>
		<text x="42" y="164" font-size="13" fill="#e6edf3">Dockerfile <tspan fill="#9198a1">0.1%</tspan></text>
		<circle cx="215" cy="160" r="5" fill="#e34c26"/>
		<text x="228" y="164" font-size="13" fill="#e6edf3">HTML <tspan fill="#9198a1">0.1%</tspan></text>
	</g>
</svg>
